<?xml version="1.0" encoding="utf-8"?>
<!-- Generator: Adobe Illustrator 18.0.0, SVG Export Plug-In . SVG Version: 6.00 Build 0)  -->
<!DOCTYPE svg PUBLIC "-//W3C//DTD SVG 1.1//EN" "http://www.w3.org/Graphics/SVG/1.1/DTD/svg11.dtd">
<svg version="1.1" id="Layer_1" xmlns="http://www.w3.org/2000/svg" xmlns:xlink="http://www.w3.org/1999/xlink" x="0px" y="0px"
	 viewBox="0 0 250 82" enable-background="new 0 0 250 82" xml:space="preserve">
<g>
	<path fill="#4A96CB" d="M86.1,75.4c-3.6,0.1-6.6-0.5-8.9-1.8s-4.2-3-5.6-5.2c-1.4-2.2-2.4-4.8-3-7.7s-0.9-6.1-1-9.3
		c-0.1-3.3,0-6.6,0.2-10c0.3-3.4,0.5-6.7,0.8-9.9s0.5-6.1,0.7-8.8s0.2-5-0.1-6.8c-0.2-1.8-0.7-3.1-1.5-3.9c-0.8-0.8-2-0.8-3.6-0.1
		c-1.5,0.6-3,1.7-4.6,3.3c-1.6,1.6-3.1,3.6-4.6,5.9c-1.5,2.3-3,5-4.3,7.9c-1.3,3-2.5,6.1-3.5,9.5c-1,3.4-1.8,6.9-2.4,10.5
		c-0.6,3.7-0.9,7.3-0.8,11c0,0.9-0.2,1.5-0.7,1.9c-0.5,0.4-1,0.5-1.6,0.4s-1.1-0.3-1.6-0.7c-0.5-0.4-0.7-0.9-0.7-1.6
		c-0.2-0.7-0.2-1.8-0.1-3.3c0.1-1.5,0.3-3.3,0.5-5.4c0.3-2.1,0.5-4.3,0.8-6.7c0.3-2.4,0.6-4.9,0.8-7.4c0.3-2.5,0.4-5,0.6-7.5
		c0.1-2.5,0.1-4.7,0-6.9c-0.1-2.1-0.4-4-0.8-5.6c-0.4-1.6-1.1-2.8-2-3.6c-0.9-0.8-2-1.1-3.4-1c-1.4,0.2-3.1,0.9-5.1,2.3
		c0.1,2.3-0.1,4.5-0.5,6.6s-1,4-1.8,5.8s-1.6,3.3-2.6,4.7s-2,2.4-3.1,3.2c-1.1,0.8-2.2,1.2-3.3,1.3c-1.1,0.1-2.1-0.2-3-0.9
		c-1.3-0.9-2.1-2.1-2.5-3.3s-0.5-2.6-0.2-4.1c0.3-1.4,0.8-2.9,1.6-4.4c0.8-1.5,1.8-2.9,3-4.3c1.2-1.4,2.5-2.7,3.9-3.8
		c1.4-1.2,2.9-2.2,4.4-3l-0.4-4.4c0.1-0.2,0.3-0.4,0.6-0.6s0.7-0.3,1.1-0.4c0.4-0.1,0.8-0.1,1.1-0.1c0.4,0,0.6,0.2,0.6,0.4l0.4,3.1
		c3-1.7,5.4-2.6,7.4-2.6c2-0.1,3.5,0.4,4.7,1.3c1.2,1,2.1,2.3,2.6,4c0.6,1.7,0.9,3.6,1.1,5.5c0.2,2,0.3,3.9,0.2,5.8
		c0,1.9-0.1,3.5-0.1,4.8c0.2-0.6,0.5-1.5,1-2.6c0.5-1.1,1.1-2.4,1.8-3.7c0.7-1.4,1.6-2.8,2.6-4.3c1-1.5,2.1-3,3.3-4.4
		c1.2-1.4,2.5-2.7,3.9-3.8c1.4-1.2,2.8-2.1,4.3-2.8c2.7-1.2,4.7-1.5,6.2-1.1c1.5,0.5,2.6,1.5,3.3,3.2c0.7,1.7,1.1,3.8,1.1,6.5
		c0.1,2.7,0,5.6-0.3,8.8c-0.2,3.2-0.5,6.6-0.9,10.1c-0.4,3.5-0.6,7-0.7,10.4c-0.1,3.4,0,6.7,0.2,9.8c0.3,3.1,0.9,5.8,2,8.1
		c1,2.3,2.5,4.1,4.5,5.4c2,1.3,4.5,1.9,7.7,1.8c0.5,0.1,0.9,0.4,1.1,0.8s0.4,0.8,0.4,1.3s-0.1,0.9-0.4,1.3
		C87,75,86.6,75.2,86.1,75.4z M26.9,17.3c-0.5,0.1-1.2,0.5-2,1.1s-1.5,1.3-2.3,2.2c-0.8,0.9-1.5,1.8-2.3,2.9
		c-0.7,1.1-1.3,2.1-1.8,3.1c-0.5,1-0.8,2-0.8,2.9c-0.1,0.9,0.1,1.7,0.5,2.3c0.4,0.4,0.8,0.5,1.4,0.3c0.6-0.2,1.2-0.7,1.9-1.3
		c0.7-0.7,1.3-1.5,2-2.5c0.6-1,1.2-2.1,1.8-3.3c0.5-1.2,1-2.4,1.3-3.7C26.8,19.7,26.9,18.5,26.9,17.3z"/>
	<path fill="#4A96CB" d="M85.5,60.1c-1.2,0-2.3-0.4-3.2-1.3c-0.9-0.9-1.6-2.1-2.2-3.5c-0.5-1.5-0.9-3.1-1.2-5
		c-0.3-1.9-0.4-3.8-0.3-5.7c0.1-2,0.3-3.9,0.6-5.8c0.4-1.9,0.8-3.6,1.5-5.1c0.6-1.5,1.4-2.7,2.3-3.7c0.9-1,2-1.5,3.1-1.6
		c1.4-0.2,2.6,0.2,3.6,1c1.1,0.8,1.9,2,2.6,3.5s1.2,3.2,1.6,5.1s0.5,3.9,0.5,5.9c0,2-0.2,4-0.6,5.9c-0.4,2-0.9,3.7-1.7,5.2
		c-0.8,1.5-1.7,2.8-2.8,3.7C88.4,59.6,87,60.1,85.5,60.1z M86.5,31.7c-0.7,0-1.3,0.4-1.9,1.1c-0.5,0.7-1,1.6-1.4,2.8
		c-0.4,1.1-0.7,2.4-0.9,3.9c-0.2,1.4-0.4,2.9-0.4,4.5s0,3,0.1,4.5c0.1,1.4,0.4,2.7,0.6,3.9c0.3,1.2,0.7,2.1,1.2,2.8
		c0.5,0.7,1.1,1.1,1.8,1.1c1.1,0.1,2.1-0.5,3-1.7c0.8-1.2,1.5-2.7,2-4.5s0.8-3.8,0.8-5.9c0.1-2.1,0-4.1-0.3-5.9
		c-0.3-1.8-0.8-3.4-1.6-4.6S87.7,31.7,86.5,31.7z"/>
	<path fill="#4A96CB" d="M104.3,60.1c-1.2,0-2.3-0.4-3.2-1.3c-0.9-0.9-1.6-2.1-2.2-3.5c-0.5-1.5-0.9-3.1-1.2-5
		c-0.3-1.9-0.4-3.8-0.3-5.7c0.1-2,0.3-3.9,0.6-5.8c0.4-1.9,0.8-3.6,1.5-5.1c0.6-1.5,1.4-2.7,2.3-3.7c0.9-1,2-1.5,3.1-1.6
		c1.4-0.2,2.6,0.2,3.6,1c1.1,0.8,1.9,2,2.6,3.5s1.2,3.2,1.6,5.1s0.5,3.9,0.5,5.9c0,2-0.2,4-0.6,5.9c-0.4,2-0.9,3.7-1.7,5.2
		c-0.8,1.5-1.7,2.8-2.8,3.7C107.3,59.6,105.9,60.1,104.3,60.1z M105.4,31.7c-0.7,0-1.3,0.4-1.9,1.1c-0.5,0.7-1,1.6-1.4,2.8
		c-0.4,1.1-0.7,2.4-0.9,3.9c-0.2,1.4-0.4,2.9-0.4,4.5s0,3,0.1,4.5c0.1,1.4,0.4,2.7,0.6,3.9c0.3,1.2,0.7,2.1,1.2,2.8
		c0.5,0.7,1.1,1.1,1.8,1.1c1.1,0.1,2.1-0.5,3-1.7c0.8-1.2,1.5-2.7,2-4.5s0.8-3.8,0.8-5.9c0.1-2.1,0-4.1-0.3-5.9
		c-0.3-1.8-0.8-3.4-1.6-4.6S106.6,31.7,105.4,31.7z"/>
	<path fill="#4A96CB" d="M115.9,28.4c0.1-1.2,0.4-2,1-2.3c0.6-0.4,1.4-0.2,2.5,0.5l-0.1,3.2c1.6-0.2,3.4-0.1,5.4,0.3
		c2,0.4,3.8,1,5.5,1.8c1.7,0.9,3.2,2,4.3,3.4s1.8,3.1,1.8,5.1c-0.1,2.7-0.7,5-1.8,7.1c-1.1,2.1-2.4,4-4,5.7
		c-1.6,1.7-3.4,3.1-5.2,4.5c-1.9,1.3-3.7,2.5-5.5,3.5c-0.4,0.2-0.7,0.1-1-0.1c-0.3-0.2-0.5-0.5-0.7-1s-0.3-0.9-0.4-1.5
		c-0.1-0.5,0-1.1,0.1-1.6L115.9,28.4z M119.9,33.8c0,0.6,0,1.5,0,2.6c0,1.2,0.1,2.5,0.2,4c0.1,1.5,0.2,3,0.3,4.7
		c0.1,1.6,0.2,3.2,0.4,4.6c0.2,1.5,0.3,2.8,0.5,3.9s0.4,1.9,0.6,2.4c0.9-0.6,2-1.4,3.3-2.6c1.3-1.1,2.5-2.4,3.7-3.7s2.2-2.7,3-4.2
		c0.8-1.4,1.2-2.8,1.1-4c0-1.1-0.3-2.1-0.8-3c-0.6-0.9-1.3-1.7-2.1-2.3c-0.8-0.7-1.8-1.2-2.8-1.6c-1-0.4-2-0.7-3-0.9
		c-1-0.2-1.8-0.3-2.6-0.2S120.2,33.5,119.9,33.8z"/>
	<path fill="#4A96CB" d="M140.3,59.3c-0.3-2.3-0.6-4.7-0.8-7.3c-0.2-2.6-0.3-5.2-0.4-7.8c-0.1-2.6-0.1-5.2-0.1-7.8s0-5,0.1-7.3
		c0.5-0.9,1.1-1.3,1.9-1.3s1.4,0.6,1.8,1.7c-0.1,1.8-0.2,3.9-0.1,6.3c0,2.4,0.1,4.8,0.2,7.3c0.1,2.5,0.2,4.9,0.4,7.1
		c0.2,2.3,0.3,4.2,0.5,5.7l10-3.5c0.5,0,0.9,0.4,1.2,1.1c0.3,0.7,0.5,1.3,0.6,1.9c-0.9,0.5-2.1,1-3.6,1.7c-1.5,0.6-3,1.2-4.6,1.7
		c-1.5,0.5-3,0.8-4.3,1C141.7,60,140.8,59.8,140.3,59.3z"/>
	<path fill="#4A96CB" d="M157.1,40.4c-0.5-0.4-1-0.8-1.3-1.3c-0.3-0.4-0.4-0.9-0.4-1.3c0-0.4,0.2-0.7,0.6-1s0.9-0.5,1.6-0.5
		c0.4-0.9,0.8-1.8,1.2-2.8s0.9-1.9,1.6-2.8c0.6-0.8,1.4-1.6,2.4-2.1c1-0.6,2.2-0.9,3.7-1c0.8,0,1.5,0.2,2.2,0.5
		c0.6,0.3,1.2,0.7,1.6,1.3c0.4,0.5,0.8,1.1,1,1.8c0.2,0.7,0.3,1.4,0.3,2.1c0,1.5-0.3,2.8-1,3.7c-0.7,1-1.5,1.7-2.6,2.3
		c-1.1,0.5-2.2,0.9-3.5,1.1c-1.3,0.2-2.6,0.3-3.8,0.3c-0.1,0.2-0.2,0.8-0.2,1.6c0,0.8,0,1.8,0.1,2.8c0.1,1.1,0.3,2.2,0.5,3.4
		c0.2,1.2,0.5,2.4,0.9,3.4c0.4,1.1,0.8,2,1.4,2.8c0.6,0.8,1.3,1.3,2.1,1.5c0.7,0.2,1.4,0.2,1.9,0c0.5-0.2,1-0.5,1.4-0.8
		c0.4-0.4,0.7-0.8,0.9-1.2s0.4-0.7,0.6-0.9c0.4-0.4,0.7-0.6,1.1-0.5c0.3,0,0.6,0.2,0.8,0.4c0.2,0.3,0.3,0.6,0.4,0.9
		c0.1,0.4,0.1,0.7,0,0.9c-0.2,0.7-0.5,1.3-1,1.9c-0.4,0.6-1,1.1-1.6,1.6c-0.6,0.4-1.2,0.8-2,1.1c-0.7,0.3-1.5,0.4-2.2,0.4
		c-1.7,0-3.1-0.7-4.2-2c-1.2-1.3-2.1-3-2.8-5c-0.7-2-1.1-4.1-1.4-6.4C156.9,44.4,156.9,42.3,157.1,40.4z M168.3,33.2
		c-0.1-1.3-0.5-2-1.3-2.2c-0.7-0.2-1.5,0-2.4,0.4c-0.8,0.5-1.6,1.2-2.3,2.2c-0.7,1-1.1,2-1.3,3c0.5,0.2,1.2,0.2,2,0.2
		s1.6-0.1,2.4-0.4c0.8-0.3,1.5-0.6,2-1.2C168,34.8,168.3,34.1,168.3,33.2z"/>
	<path fill="#E61440" d="M198.2,52.1c-1.8,3-3.6,5.3-5.4,6.9c-1.8,1.6-3.5,2.7-5.1,3.3c-1.6,0.6-3.1,0.7-4.6,0.5
		c-1.4-0.3-2.7-0.8-3.8-1.6c-1.1-0.8-2-1.7-2.8-2.8c-0.7-1.1-1.2-2.2-1.5-3.4c-0.5-2.3-0.6-4.7-0.2-7.4c0.4-2.7,1.4-5.2,2.9-7.7
		c1.5-2.5,3.7-4.7,6.5-6.7c2.8-2,6.3-3.4,10.6-4.3c-0.2-1.1-0.3-2.5-0.4-4c-0.1-1.5-0.1-3.2,0.1-4.8c0.1-1.7,0.3-3.3,0.7-5
		c0.3-1.6,0.8-3.1,1.4-4.4c0.6-1.3,1.3-2.4,2.2-3.2c0.9-0.8,2-1.2,3.2-1.3c1.4,0.1,2.4,0.7,3.2,1.8s1.3,2.6,1.6,4.3
		c0.3,1.8,0.4,3.8,0.3,6.1c-0.1,2.3-0.3,4.6-0.6,7.1c-0.3,2.4-0.7,4.8-1.2,7.3c-0.5,2.4-1,4.6-1.5,6.7c-0.5,2-1,3.8-1.5,5.3
		c-0.5,1.5-0.8,2.5-1.1,3.1c0.1,4.1,0.5,7.8,1.3,11.1c0.8,3.3,1.9,6,3.2,8.2c1.3,2.2,2.8,3.8,4.5,4.8c1.7,1,3.4,1.3,5.2,0.8
		c0.3-0.1,0.6,0,0.8,0.2s0.5,0.5,0.6,0.9c0.1,0.4,0.1,0.8-0.1,1.3c-0.1,0.4-0.5,0.8-1.1,1.1c-2.3,0.7-4.5,0.4-6.6-0.7
		c-2.1-1.1-3.9-2.8-5.5-5.1s-2.9-5-3.8-8.2C198.9,59.1,198.3,55.7,198.2,52.1z M194.9,32.8c-3.7,1.1-6.7,2.6-9,4.4
		c-2.3,1.8-4.1,3.7-5.4,5.7c-1.2,2-2,4-2.2,6c-0.3,2-0.1,3.8,0.4,5.4c0.5,1.7,1.5,3,2.8,3.9c1.3,0.9,2.8,1.2,4.5,0.8
		c1.7-0.4,3.5-1.4,5.4-3.2c1.9-1.8,3.7-4.6,5.5-8.3c0-2.3-0.1-4.8-0.4-7.4c-0.3-2.6-0.6-5-1.1-7.3c0,0-0.1,0-0.2,0
		C195,32.8,194.9,32.8,194.9,32.8z M201.6,10.4c-0.8,0.2-1.5,0.9-2,2c-0.5,1.1-0.9,2.5-1.1,4.1c-0.3,1.6-0.4,3.4-0.4,5.4
		c0,2,0.1,4.1,0.2,6.2c0.2,2.1,0.4,4.1,0.7,6.1c0.3,2,0.6,3.7,1,5.2c0.6-1.8,1.2-3.8,1.6-5.9c0.5-2.1,0.9-4.3,1.2-6.5
		c0.3-2.2,0.5-4.3,0.7-6.3c0.1-2,0.2-3.8,0.1-5.4c-0.1-1.6-0.3-2.8-0.6-3.7C202.6,10.8,202.2,10.4,201.6,10.4z"/>
	<path fill="#E61440" d="M213.4,32.2c-0.7,0-1.2-0.2-1.6-0.7c-0.4-0.5-0.6-1-0.6-1.6c0-0.6,0.1-1.1,0.5-1.5c0.3-0.4,0.9-0.7,1.7-0.6
		c0.7,0,1.2,0.2,1.6,0.7c0.4,0.4,0.7,1,0.7,1.5c0.1,0.6-0.1,1.1-0.4,1.6S214.3,32.2,213.4,32.2z M211.6,59.5
		c0.1-1.2,0.2-2.7,0.3-4.5c0.1-1.9,0.1-3.8,0.1-5.9s0-4.2-0.1-6.4c-0.1-2.1-0.2-4.1-0.3-5.9c-0.2-0.2-0.1-0.6,0.3-1.1
		c0.4-0.5,0.8-0.8,1.3-1.1c0.5-0.2,1-0.2,1.5,0.1c0.5,0.3,0.8,1,0.8,2.3c0.1,1.4,0.2,3,0.2,4.8c0,1.8,0,3.6,0,5.5c0,1.9,0,3.8,0,5.8
		c0,2,0.1,3.8,0.2,5.7c-0.1,0.6-0.4,1-0.7,1.2c-0.4,0.2-0.8,0.3-1.2,0.4c-0.4,0-0.9,0-1.3-0.2C212.1,59.8,211.8,59.7,211.6,59.5z"/>
	<path fill="#E61440" d="M237.4,44.2c0.1,0.5,0.1,1.3,0.2,2.2c0,1,0,2.1-0.2,3.3c-0.2,1.2-0.5,2.4-0.9,3.6s-1,2.3-1.8,3.3
		c-0.8,1-1.8,1.8-3,2.4c-1.2,0.6-2.7,0.9-4.5,0.8c-2,0-3.8-0.8-5.2-2.4c-1.4-1.6-2.3-3.7-2.6-6.2c-0.2-1.8-0.3-3.7-0.3-5.7
		c0-2,0.2-3.9,0.6-5.7c0.4-1.8,0.9-3.6,1.7-5.2c0.7-1.6,1.7-3,2.9-4.1c1.2-1.1,2.7-1.9,4.4-2.3c1.7-0.4,3.7-0.5,5.9,0
		c0.4,0.2,0.6,0.4,0.7,0.8c0.1,0.4,0.2,0.8,0.1,1.3c0,0.4-0.2,0.8-0.4,1.2c-0.2,0.3-0.5,0.5-0.8,0.5c-2.4-0.6-4.5-0.5-6.1,0.3
		c-1.6,0.8-2.9,2.1-3.9,3.8c-1,1.8-1.6,3.9-1.8,6.4c-0.3,2.5-0.2,5.2,0.1,8c0.2,1.9,0.7,3.3,1.4,4.3c0.7,1,1.5,1.6,2.4,1.8
		c0.9,0.2,1.9,0.1,2.9-0.3c1-0.4,1.9-1.1,2.8-2c0.8-0.9,1.5-2,2-3.3c0.5-1.3,0.7-2.7,0.6-4.3l-4.7,0.2c-0.5-0.1-0.8-0.4-1-0.8
		c-0.2-0.4-0.3-0.8-0.4-1.2c0-0.4,0-0.8,0.2-1.1c0.1-0.3,0.3-0.5,0.6-0.5c0.7,0.1,1.5,0.1,2.4,0.1c0.9-0.1,1.7-0.1,2.5-0.2
		c0.8-0.1,1.5,0,2.1,0.1C236.8,43.4,237.2,43.7,237.4,44.2z"/>
</g>
</svg>
